<svg xmlns="http://www.w3.org/2000/svg" id="Layer_1" enable-background="new 0 0 64 64" viewBox="0 0 64 64"><path fill="#2d2f63" d="M23.3,39.5h26.6c-2.9,1.5-6.3,3.7-9,6.4c-0.9,0.9-1.6,1.8-2.3,2.7c-0.2-0.2-0.5-0.4-0.7-0.7
		c-0.6-0.6-1.5-1.3-2.5-2.1C32.8,43.9,28.8,41.5,23.3,39.5z M31.6,45.7H7.2c-1.8,0-3.2-1.4-3.2-3.1c0-1.7,1.4-3.1,3.2-3.1h9.1
		C23.1,41.1,28.1,43.5,31.6,45.7z M54.4,39.5h2.5c1.8,0,3.2,1.4,3.2,3.1c0,1.7-1.4,3.1-3.2,3.1H44C47.6,42.7,51.9,40.6,54.4,39.5z
		 M58.3,37.6H5.7c-1,0-1.8-0.8-1.8-1.7s0.8-1.7,1.8-1.7h52.6c1,0,1.8,0.8,1.8,1.7S59.3,37.6,58.3,37.6z M62.1,50.9
		c0,2.3-1.9,4.3-4.3,4.3H6.2c-2.4,0-4.3-1.9-4.3-4.3v-1.1c0-1.2,1-2.2,2.2-2.2h30.3c0.1,0.1,0.2,0.2,0.4,0.3
		c0.1,0.1,0.3,0.2,0.4,0.3c0.2,0.1,0.3,0.2,0.4,0.3c0.1,0.1,0.2,0.2,0.3,0.3c0.1,0.1,0.2,0.2,0.3,0.3c0.1,0.1,0.2,0.2,0.3,0.2
		c0.1,0.1,0.2,0.2,0.3,0.3c0.1,0.1,0.2,0.1,0.2,0.2c0.1,0.1,0.2,0.2,0.2,0.2c0.1,0.1,0.1,0.1,0.2,0.2c0.1,0.1,0.1,0.1,0.2,0.2
		c0,0,0.1,0.1,0.1,0.1c0.1,0.1,0.1,0.1,0.1,0.2c0,0,0,0,0,0c0,0,0.1,0.1,0.1,0.1c0.1,0.1,0.2,0.2,0.3,0.3c0,0,0,0,0,0
		c0.1,0,0.3,0.1,0.4,0.1c0,0,0,0,0,0h0.1c0.3,0,0.6-0.2,0.8-0.5c0.2-0.3,0.3-0.5,0.5-0.8c0.1-0.1,0.1-0.2,0.2-0.3
		c0.1-0.2,0.3-0.3,0.4-0.5c0.1-0.1,0.2-0.2,0.3-0.3c0.1-0.2,0.3-0.3,0.4-0.5c0.1-0.1,0.2-0.2,0.3-0.3c0.1-0.1,0.2-0.2,0.3-0.3h18
		c1.2,0,2.2,1,2.2,2.2V50.9z M60.8,45.8c0.7-0.9,1.2-2,1.2-3.2c0-1.5-0.7-2.8-1.7-3.7c1-0.6,1.7-1.8,1.7-3c0-1.3-0.8-2.5-1.9-3.1
		c2.3-1.1,3.8-3.1,3.8-6.5C63.9,15.6,49.6,6.9,32,6.9S0.1,15.6,0.1,26.3c0,3.5,1.4,5.5,3.6,6.6c-1,0.6-1.7,1.8-1.7,3
		c0,1.3,0.7,2.4,1.7,3c-1,0.9-1.7,2.2-1.7,3.7c0,1.2,0.5,2.3,1.2,3.2c-1.8,0.4-3.2,2-3.2,4v1.1c0,3.4,2.8,6.2,6.2,6.2h51.6
		c3.4,0,6.2-2.8,6.2-6.2v-1.1C64,47.8,62.6,46.2,60.8,45.8z M51.3,32.3C51.3,32.3,51.3,32.3,51.3,32.3H11.8c0,0,0,0,0,0
		c-7.2,0-9.7-1.6-9.7-6C2.1,16.7,15.5,8.8,32,8.8s29.9,7.8,29.9,17.5C61.9,30.7,59,32.3,51.3,32.3z"/><path fill="#b5d9e5" d="M31.6 45.7H7.2c-1.8 0-3.2-1.4-3.2-3.1 0-1.7 1.4-3.1 3.2-3.1h9.1C23.1 41.1 28.1 43.5 31.6 45.7zM60.1 42.6c0 1.7-1.4 3.1-3.2 3.1H44c3.6-3 7.9-5.1 10.4-6.2h2.5C58.6 39.5 60.1 40.9 60.1 42.6z"/><path fill="#33aa4a" d="M49.9,39.5c-2.9,1.5-6.3,3.7-9,6.4c-0.9,0.9-1.6,1.8-2.3,2.7c-0.2-0.2-0.5-0.4-0.7-0.7
		c-0.6-0.6-1.5-1.3-2.5-2.1c-2.6-1.9-6.6-4.4-12.1-6.3H49.9z"/><path fill="#f16d60" d="M60.1,35.9c0,0.9-0.8,1.7-1.8,1.7H5.7c-1,0-1.8-0.8-1.8-1.7s0.8-1.7,1.8-1.7h52.6C59.3,34.2,60.1,35,60.1,35.9
		z"/><path fill="#efd299" d="M62.1,49.8v1.1c0,2.3-1.9,4.3-4.3,4.3H6.2c-2.4,0-4.3-1.9-4.3-4.3v-1.1c0-1.2,1-2.2,2.2-2.2h30.3
		c0.1,0.1,0.2,0.2,0.4,0.3c0.1,0.1,0.3,0.2,0.4,0.3c0.2,0.1,0.3,0.2,0.4,0.3c0.1,0.1,0.2,0.2,0.3,0.3c0.1,0.1,0.2,0.2,0.3,0.3
		c0.1,0.1,0.2,0.2,0.3,0.2c0.1,0.1,0.2,0.2,0.3,0.3c0.1,0.1,0.2,0.1,0.2,0.2c0.1,0.1,0.2,0.2,0.2,0.2c0.1,0.1,0.1,0.1,0.2,0.2
		c0.1,0.1,0.1,0.1,0.2,0.2c0,0,0.1,0.1,0.1,0.1c0.1,0.1,0.1,0.1,0.1,0.2c0,0,0,0,0,0c0,0,0.1,0.1,0.1,0.1c0.1,0.1,0.2,0.2,0.3,0.3
		c0,0,0,0,0,0c0.1,0,0.3,0.1,0.4,0.1c0,0,0,0,0,0h0.1c0.3,0,0.6-0.2,0.8-0.5c0.2-0.3,0.3-0.5,0.5-0.8c0.1-0.1,0.1-0.2,0.2-0.3
		c0.1-0.2,0.3-0.3,0.4-0.5c0.1-0.1,0.2-0.2,0.3-0.3c0.1-0.2,0.3-0.3,0.4-0.5c0.1-0.1,0.2-0.2,0.3-0.3c0.1-0.1,0.2-0.2,0.3-0.3h18
		C61.1,47.6,62.1,48.6,62.1,49.8z"/><path fill="#dfc18b" d="M62.1,49.8v1.1c0,2.3-1.9,4.3-4.3,4.3H6.2c-2.4,0-4.3-1.9-4.3-4.3v-1.1c0-1,0.7-1.9,1.7-2.1c0,0.1,0,0.2,0,0.3
		v1c0,2.2,1.8,4,4,4h48.2c2.2,0,4-1.8,4-4v-1c0-0.1,0-0.2,0-0.3h0.2C61.1,47.6,62.1,48.6,62.1,49.8z"/><path fill="#ffe4aa" d="M32,8.8c-16.5,0-29.9,7.8-29.9,17.5c0,4.4,2.5,6,9.7,6c0,0,0,0,0,0h39.4c0,0,0,0,0,0c7.8,0,10.7-1.6,10.7-6
		C61.9,16.7,48.5,8.8,32,8.8z M16.6,20.1c-1.4,0-2.5-1.1-2.5-2.5c0-1.4,1.1-2.5,2.5-2.5c1.4,0,2.5,1.1,2.5,2.5
		C19.1,19,18,20.1,16.6,20.1z M25.9,16.5c-1.4,0-2.5-1.1-2.5-2.5s1.1-2.5,2.5-2.5c1.4,0,2.5,1.1,2.5,2.5S27.2,16.5,25.9,16.5z
		 M31.4,21.7c-1.4,0-2.5-1.1-2.5-2.5c0-1.4,1.1-2.5,2.5-2.5s2.5,1.1,2.5,2.5C33.9,20.5,32.8,21.7,31.4,21.7z M38.5,15.9
		c-1.4,0-2.5-1.1-2.5-2.5c0-1.4,1.1-2.5,2.5-2.5c1.4,0,2.5,1.1,2.5,2.5C40.9,14.8,39.8,15.9,38.5,15.9z M47.4,20.1
		c-1.4,0-2.5-1.1-2.5-2.5c0-1.4,1.1-2.5,2.5-2.5c1.4,0,2.5,1.1,2.5,2.5C49.9,19,48.8,20.1,47.4,20.1z"/><path fill="#efd299" d="M61.9,26.3c0,3.8-2.2,5.5-8,5.9c4-0.6,5.6-2.2,5.6-5.3c0-7.2-8.2-13.3-19.5-15.4c-0.4-0.4-1-0.6-1.6-0.6
		c-0.4,0-0.7,0.1-1,0.2c-1.8-0.2-3.6-0.3-5.4-0.3c-15.2,0-27.5,7.2-27.5,16.1c0,3.2,1.4,4.7,5.2,5.3c-5.6-0.3-7.6-2-7.6-5.9
		C2.1,16.7,15.5,8.8,32,8.8S61.9,16.7,61.9,26.3z"/><path fill="#2d2f63" d="M16.6,15.2c-1.4,0-2.5,1.1-2.5,2.5c0,1.4,1.1,2.5,2.5,2.5c1.4,0,2.5-1.1,2.5-2.5C19.1,16.3,18,15.2,16.6,15.2
		z M16.6,18.2c-0.3,0-0.6-0.3-0.6-0.5c0-0.3,0.3-0.6,0.6-0.6c0.3,0,0.5,0.2,0.5,0.6C17.2,17.9,16.9,18.2,16.6,18.2z"/><circle cx="16.6" cy="17.6" r=".6" fill="#dfc18b"/><path fill="#2d2f63" d="M25.9,11.5c-1.4,0-2.5,1.1-2.5,2.5s1.1,2.5,2.5,2.5c1.4,0,2.5-1.1,2.5-2.5S27.2,11.5,25.9,11.5z M25.9,14.6
		c-0.3,0-0.6-0.2-0.6-0.6c0-0.3,0.3-0.6,0.6-0.6c0.3,0,0.5,0.3,0.5,0.6C26.4,14.3,26.2,14.6,25.9,14.6z"/><circle cx="25.9" cy="14" r=".6" fill="#dfc18b"/><path fill="#2d2f63" d="M38.5,11c-1.4,0-2.5,1.1-2.5,2.5c0,1.4,1.1,2.5,2.5,2.5c1.4,0,2.5-1.1,2.5-2.5C40.9,12.1,39.8,11,38.5,11z
		 M38.5,14c-0.3,0-0.5-0.3-0.5-0.6c0-0.3,0.3-0.5,0.5-0.5s0.5,0.2,0.5,0.5C39,13.8,38.8,14,38.5,14z"/><path fill="#dfc18b" d="M39,13.4c0,0.3-0.3,0.6-0.5,0.6s-0.5-0.3-0.5-0.6c0-0.3,0.3-0.5,0.5-0.5S39,13.1,39,13.4z"/><path fill="#2d2f63" d="M47.4,15.2c-1.4,0-2.5,1.1-2.5,2.5c0,1.4,1.1,2.5,2.5,2.5c1.4,0,2.5-1.1,2.5-2.5
		C49.9,16.3,48.8,15.2,47.4,15.2z M47.4,18.2c-0.3,0-0.5-0.3-0.5-0.5c0-0.3,0.3-0.6,0.5-0.6c0.3,0,0.5,0.2,0.5,0.6
		C47.9,17.9,47.7,18.2,47.4,18.2z"/><circle cx="47.4" cy="17.6" r=".6" fill="#dfc18b"/><path fill="#2d2f63" d="M31.4,16.7c-1.4,0-2.5,1.1-2.5,2.5c0,1.4,1.1,2.5,2.5,2.5s2.5-1.1,2.5-2.5C33.9,17.8,32.8,16.7,31.4,16.7z
		 M31.4,19.7c-0.3,0-0.5-0.3-0.5-0.5c0-0.3,0.3-0.6,0.5-0.6s0.5,0.2,0.5,0.6C32,19.5,31.7,19.7,31.4,19.7z"/><circle cx="31.4" cy="19.2" r=".6" fill="#dfc18b"/></svg>