<?xml version="1.0" encoding="UTF-8" standalone="no"?>
<svg xmlns:dc="http://purl.org/dc/elements/1.1/" xmlns:cc="http://creativecommons.org/ns#" xmlns:rdf="http://www.w3.org/1999/02/22-rdf-syntax-ns#" xmlns:svg="http://www.w3.org/2000/svg" xmlns="http://www.w3.org/2000/svg" xmlns:sodipodi="http://sodipodi.sourceforge.net/DTD/sodipodi-0.dtd" xmlns:inkscape="http://www.inkscape.org/namespaces/inkscape" sodipodi:docname="food-vegetables-vegetarian-healthy food-salad-vegan-organic .svg" inkscape:version="0.91 r" version="1.1" id="svg6485" viewBox="0 0 32 32" height="32" width="32">
  <sodipodi:namedview inkscape:snap-bbox-edge-midpoints="true" inkscape:bbox-nodes="true" inkscape:snap-bbox="true" inkscape:guide-bbox="true" showguides="false" inkscape:snap-global="true" inkscape:window-maximized="1" inkscape:window-y="24" inkscape:window-x="57" inkscape:window-height="744" inkscape:window-width="1309" units="px" showgrid="true" inkscape:current-layer="layer1" inkscape:document-units="px" inkscape:cy="16" inkscape:cx="16" inkscape:zoom="19.59375" inkscape:pageshadow="2" inkscape:pageopacity="0.0" borderopacity="1.0" bordercolor="#666666" pagecolor="#ffffff" id="base" inkscape:lockguides="false" inkscape:showpageshadow="false">
    <inkscape:grid empspacing="4" id="grid4145" type="xygrid"/>
  </sodipodi:namedview>
  <defs id="defs6487">
    <inkscape:path-effect effect="spiro" id="path-effect5218" is_visible="true"/>
    <inkscape:path-effect effect="spiro" id="path-effect5214" is_visible="true"/>
    <inkscape:path-effect effect="spiro" id="path-effect5206" is_visible="true"/>
    <inkscape:path-effect effect="spiro" id="path-effect5190" is_visible="true"/>
    <inkscape:path-effect effect="spiro" id="path-effect5191" is_visible="true"/>
    <inkscape:path-effect effect="spiro" id="path-effect5187" is_visible="true"/>
    <inkscape:path-effect is_visible="true" id="path-effect7721" effect="spiro"/>
    <inkscape:path-effect is_visible="true" id="path-effect7716" effect="spiro"/>
    <inkscape:path-effect effect="spiro" id="path-effect7712" is_visible="true"/>
    <inkscape:path-effect is_visible="true" id="path-effect7708" effect="spiro"/>
    <inkscape:path-effect is_visible="true" id="path-effect7704" effect="spiro"/>
    <inkscape:path-effect is_visible="true" id="path-effect7605" effect="spiro"/>
    <inkscape:path-effect effect="spiro" id="path-effect7601" is_visible="true"/>
    <inkscape:path-effect effect="spiro" id="path-effect7597" is_visible="true"/>
    <inkscape:path-effect is_visible="true" id="path-effect7593" effect="spiro"/>
    <inkscape:path-effect is_visible="true" id="path-effect7589" effect="spiro"/>
    <inkscape:path-effect effect="spiro" id="path-effect7585" is_visible="true"/>
    <inkscape:path-effect is_visible="true" id="path-effect7581" effect="spiro"/>
    <inkscape:path-effect effect="spiro" id="path-effect7577" is_visible="true"/>
    <inkscape:path-effect effect="spiro" id="path-effect7573" is_visible="true"/>
    <inkscape:path-effect is_visible="true" id="path-effect7569" effect="spiro"/>
    <inkscape:path-effect is_visible="true" id="path-effect7565" effect="spiro"/>
    <inkscape:path-effect effect="spiro" id="path-effect7561" is_visible="true"/>
    <inkscape:path-effect effect="spiro" id="path-effect7557" is_visible="true"/>
    <inkscape:path-effect is_visible="true" id="path-effect7553" effect="spiro"/>
    <inkscape:path-effect is_visible="true" id="path-effect7545" effect="spiro"/>
    <inkscape:path-effect effect="spiro" id="path-effect7541" is_visible="true"/>
    <inkscape:path-effect effect="spiro" id="path-effect7537" is_visible="true"/>
    <inkscape:path-effect is_visible="true" id="path-effect7533" effect="spiro"/>
    <inkscape:path-effect effect="spiro" id="path-effect7529" is_visible="true"/>
    <inkscape:path-effect effect="spiro" id="path-effect7525" is_visible="true"/>
    <inkscape:path-effect is_visible="true" id="path-effect7521" effect="spiro"/>
    <inkscape:path-effect effect="spiro" id="path-effect7403" is_visible="true"/>
    <inkscape:path-effect is_visible="true" id="path-effect7399" effect="spiro"/>
    <inkscape:path-effect effect="spiro" id="path-effect7395" is_visible="true"/>
    <inkscape:path-effect is_visible="true" id="path-effect7391" effect="spiro"/>
    <inkscape:path-effect effect="spiro" id="path-effect7387" is_visible="true"/>
    <inkscape:path-effect is_visible="true" id="path-effect7383" effect="spiro"/>
    <inkscape:path-effect effect="spiro" id="path-effect7379" is_visible="true"/>
    <inkscape:path-effect is_visible="true" id="path-effect7375" effect="spiro"/>
    <inkscape:path-effect effect="spiro" id="path-effect7335" is_visible="true"/>
    <inkscape:path-effect is_visible="true" id="path-effect7331" effect="spiro"/>
    <inkscape:path-effect effect="spiro" id="path-effect7326" is_visible="true"/>
    <inkscape:path-effect is_visible="true" id="path-effect7322" effect="spiro"/>
    <inkscape:path-effect effect="spiro" id="path-effect7318" is_visible="true"/>
    <inkscape:path-effect is_visible="true" id="path-effect7314" effect="spiro"/>
    <inkscape:path-effect is_visible="true" id="path-effect7290" effect="spiro"/>
    <inkscape:path-effect effect="spiro" id="path-effect7286" is_visible="true"/>
    <inkscape:path-effect is_visible="true" id="path-effect7282" effect="spiro"/>
    <inkscape:path-effect effect="spiro" id="path-effect7278" is_visible="true"/>
    <inkscape:path-effect is_visible="true" id="path-effect7274" effect="spiro"/>
    <inkscape:path-effect is_visible="true" id="path-effect7241" effect="spiro"/>
    <inkscape:path-effect is_visible="true" id="path-effect7237" effect="spiro"/>
    <inkscape:path-effect is_visible="true" id="path-effect7233" effect="spiro"/>
    <inkscape:path-effect is_visible="true" id="path-effect7219" effect="spiro"/>
    <inkscape:path-effect is_visible="true" id="path-effect7192" effect="spiro"/>
    <inkscape:path-effect effect="spiro" id="path-effect7091" is_visible="true"/>
    <inkscape:path-effect is_visible="true" id="path-effect7087" effect="spiro"/>
    <inkscape:path-effect effect="spiro" id="path-effect7083" is_visible="true"/>
    <inkscape:path-effect effect="spiro" id="path-effect7079" is_visible="true"/>
    <inkscape:path-effect is_visible="true" id="path-effect7075" effect="spiro"/>
    <inkscape:path-effect effect="spiro" id="path-effect6990" is_visible="true"/>
    <inkscape:path-effect is_visible="true" id="path-effect6986" effect="spiro"/>
    <inkscape:path-effect is_visible="true" id="path-effect6982" effect="spiro"/>
    <inkscape:path-effect effect="spiro" id="path-effect6978" is_visible="true"/>
    <inkscape:path-effect effect="spiro" id="path-effect6974" is_visible="true"/>
    <inkscape:path-effect is_visible="true" id="path-effect6970" effect="spiro"/>
    <inkscape:path-effect is_visible="true" id="path-effect6854" effect="spiro"/>
    <inkscape:path-effect effect="spiro" id="path-effect6850" is_visible="true"/>
    <inkscape:path-effect is_visible="true" id="path-effect6846" effect="spiro"/>
    <inkscape:path-effect is_visible="true" id="path-effect6842" effect="spiro"/>
    <inkscape:path-effect effect="spiro" id="path-effect6838" is_visible="true"/>
    <inkscape:path-effect is_visible="true" id="path-effect6834" effect="spiro"/>
    <inkscape:path-effect effect="spiro" id="path-effect6830" is_visible="true"/>
    <inkscape:path-effect is_visible="true" id="path-effect6826" effect="spiro"/>
    <inkscape:path-effect effect="spiro" id="path-effect6822" is_visible="true"/>
    <inkscape:path-effect is_visible="true" id="path-effect6818" effect="spiro"/>
    <inkscape:path-effect effect="spiro" id="path-effect6814" is_visible="true"/>
    <inkscape:path-effect is_visible="true" id="path-effect6810" effect="spiro"/>
    <inkscape:path-effect is_visible="true" id="path-effect6733" effect="spiro"/>
    <inkscape:path-effect effect="spiro" id="path-effect6729" is_visible="true"/>
    <inkscape:path-effect is_visible="true" id="path-effect6725" effect="spiro"/>
    <inkscape:path-effect is_visible="true" id="path-effect6709" effect="spiro"/>
    <inkscape:path-effect is_visible="true" id="path-effect6705" effect="spiro"/>
    <inkscape:path-effect effect="spiro" id="path-effect6701" is_visible="true"/>
    <inkscape:path-effect is_visible="true" id="path-effect6697" effect="spiro"/>
    <inkscape:path-effect effect="spiro" id="path-effect6693" is_visible="true"/>
    <inkscape:path-effect is_visible="true" id="path-effect6689" effect="spiro"/>
    <inkscape:path-effect effect="spiro" id="path-effect6685" is_visible="true"/>
    <inkscape:path-effect is_visible="true" id="path-effect6681" effect="spiro"/>
    <inkscape:path-effect effect="spiro" id="path-effect6654" is_visible="true"/>
    <inkscape:path-effect is_visible="true" id="path-effect6649" effect="spiro"/>
    <inkscape:path-effect effect="spiro" id="path-effect6644" is_visible="true"/>
    <inkscape:path-effect is_visible="true" id="path-effect6641" effect="spiro"/>
    <inkscape:path-effect is_visible="true" id="path-effect6638" effect="spiro"/>
    <inkscape:path-effect effect="spiro" id="path-effect6634" is_visible="true"/>
    <inkscape:path-effect is_visible="true" id="path-effect6630" effect="spiro"/>
    <inkscape:path-effect is_visible="true" id="path-effect6568" effect="spiro"/>
    <inkscape:path-effect effect="spiro" id="path-effect6564" is_visible="true"/>
    <inkscape:path-effect is_visible="true" id="path-effect6560" effect="spiro"/>
    <inkscape:path-effect effect="spiro" id="path-effect6556" is_visible="true"/>
    <inkscape:path-effect is_visible="true" id="path-effect6552" effect="spiro"/>
    <inkscape:path-effect is_visible="true" id="path-effect6547" effect="spiro"/>
    <inkscape:path-effect is_visible="true" id="path-effect6527" effect="spiro"/>
    <inkscape:path-effect effect="spiro" id="path-effect6481" is_visible="true"/>
    <inkscape:path-effect is_visible="true" id="path-effect6477" effect="spiro"/>
    <inkscape:path-effect effect="spiro" id="path-effect6473" is_visible="true"/>
    <inkscape:path-effect is_visible="true" id="path-effect6469" effect="spiro"/>
    <inkscape:path-effect effect="spiro" id="path-effect6465" is_visible="true"/>
    <inkscape:path-effect is_visible="true" id="path-effect6461" effect="spiro"/>
    <inkscape:path-effect effect="spiro" id="path-effect6457" is_visible="true"/>
    <inkscape:path-effect is_visible="true" id="path-effect6453" effect="spiro"/>
    <inkscape:path-effect is_visible="true" id="path-effect6441" effect="spiro"/>
    <inkscape:path-effect is_visible="true" id="path-effect6397" effect="spiro"/>
    <inkscape:path-effect effect="spiro" id="path-effect6393" is_visible="true"/>
    <inkscape:path-effect effect="spiro" id="path-effect6389" is_visible="true"/>
    <inkscape:path-effect is_visible="true" id="path-effect6385" effect="spiro"/>
    <inkscape:path-effect is_visible="true" id="path-effect6381" effect="spiro"/>
    <inkscape:path-effect effect="spiro" id="path-effect6377" is_visible="true"/>
    <inkscape:path-effect effect="spiro" id="path-effect6373" is_visible="true"/>
    <inkscape:path-effect is_visible="true" id="path-effect6369" effect="spiro"/>
    <inkscape:path-effect is_visible="true" id="path-effect6353" effect="spiro"/>
    <inkscape:path-effect effect="spiro" id="path-effect6349" is_visible="true"/>
    <inkscape:path-effect is_visible="true" id="path-effect6345" effect="spiro"/>
    <inkscape:path-effect effect="spiro" id="path-effect6337" is_visible="true"/>
    <inkscape:path-effect is_visible="true" id="path-effect6333" effect="spiro"/>
    <inkscape:path-effect effect="spiro" id="path-effect6329" is_visible="true"/>
    <inkscape:path-effect effect="spiro" id="path-effect6320" is_visible="true"/>
    <inkscape:path-effect is_visible="true" id="path-effect6316" effect="spiro"/>
    <inkscape:path-effect effect="spiro" id="path-effect6312" is_visible="true"/>
    <inkscape:path-effect is_visible="true" id="path-effect6308" effect="spiro"/>
    <inkscape:path-effect effect="spiro" id="path-effect6260" is_visible="true"/>
    <inkscape:path-effect is_visible="true" id="path-effect6256" effect="spiro"/>
    <inkscape:path-effect effect="spiro" id="path-effect6252" is_visible="true"/>
    <inkscape:path-effect is_visible="true" id="path-effect6248" effect="spiro"/>
    <inkscape:path-effect is_visible="true" id="path-effect6203" effect="spiro"/>
    <inkscape:path-effect is_visible="true" id="path-effect6200" effect="spiro"/>
    <inkscape:path-effect is_visible="true" id="path-effect6197" effect="spiro"/>
    <inkscape:path-effect effect="spiro" id="path-effect6157" is_visible="true"/>
    <inkscape:path-effect effect="spiro" id="path-effect6154" is_visible="true"/>
    <inkscape:path-effect effect="spiro" id="path-effect6151" is_visible="true"/>
    <inkscape:path-effect is_visible="true" id="path-effect6024" effect="spiro"/>
    <inkscape:path-effect effect="spiro" id="path-effect6016" is_visible="true"/>
    <inkscape:path-effect is_visible="true" id="path-effect6009" effect="spiro"/>
    <inkscape:path-effect is_visible="true" id="path-effect5903" effect="spiro"/>
    <inkscape:path-effect effect="spiro" id="path-effect5899" is_visible="true"/>
    <inkscape:path-effect effect="spiro" id="path-effect5861" is_visible="true"/>
    <inkscape:path-effect is_visible="true" id="path-effect5857" effect="spiro"/>
    <inkscape:path-effect is_visible="true" id="path-effect5720" effect="spiro"/>
    <inkscape:path-effect effect="spiro" id="path-effect5714" is_visible="true"/>
    <inkscape:path-effect is_visible="true" id="path-effect5708" effect="spiro"/>
    <inkscape:path-effect is_visible="true" id="path-effect5702" effect="spiro"/>
    <inkscape:path-effect effect="spiro" id="path-effect5698" is_visible="true"/>
    <inkscape:path-effect effect="spiro" id="path-effect5690" is_visible="true"/>
    <inkscape:path-effect effect="spiro" id="path-effect5684" is_visible="true"/>
    <inkscape:path-effect is_visible="true" id="path-effect5680" effect="spiro"/>
    <inkscape:path-effect effect="spiro" id="path-effect5551" is_visible="true"/>
    <inkscape:path-effect is_visible="true" id="path-effect5545" effect="spiro"/>
    <inkscape:path-effect effect="spiro" id="path-effect5539" is_visible="true"/>
    <inkscape:path-effect effect="spiro" id="path-effect5535" is_visible="true"/>
    <inkscape:path-effect is_visible="true" id="path-effect5531" effect="spiro"/>
    <inkscape:path-effect is_visible="true" id="path-effect5527" effect="spiro"/>
    <inkscape:path-effect effect="spiro" id="path-effect5521" is_visible="true"/>
    <inkscape:path-effect effect="spiro" id="path-effect5515" is_visible="true"/>
    <inkscape:path-effect is_visible="true" id="path-effect5511" effect="spiro"/>
    <inkscape:path-effect effect="spiro" id="path-effect5507" is_visible="true"/>
    <inkscape:path-effect is_visible="true" id="path-effect5503" effect="spiro"/>
    <inkscape:path-effect effect="spiro" id="path-effect5499" is_visible="true"/>
    <inkscape:path-effect is_visible="true" id="path-effect5495" effect="spiro"/>
    <inkscape:path-effect effect="spiro" id="path-effect5491" is_visible="true"/>
    <inkscape:path-effect is_visible="true" id="path-effect5487" effect="spiro"/>
    <inkscape:path-effect is_visible="true" id="path-effect5483" effect="spiro"/>
    <inkscape:path-effect effect="spiro" id="path-effect5479" is_visible="true"/>
    <inkscape:path-effect is_visible="true" id="path-effect5475" effect="spiro"/>
    <inkscape:path-effect effect="spiro" id="path-effect5471" is_visible="true"/>
    <inkscape:path-effect effect="spiro" id="path-effect5467" is_visible="true"/>
    <inkscape:path-effect is_visible="true" id="path-effect5463" effect="spiro"/>
    <inkscape:path-effect is_visible="true" id="path-effect5346" effect="spiro"/>
    <inkscape:path-effect effect="spiro" id="path-effect5342" is_visible="true"/>
    <inkscape:path-effect is_visible="true" id="path-effect5338" effect="spiro"/>
    <inkscape:path-effect effect="spiro" id="path-effect5334" is_visible="true"/>
    <inkscape:path-effect effect="spiro" id="path-effect5330" is_visible="true"/>
    <inkscape:path-effect is_visible="true" id="path-effect5326" effect="spiro"/>
    <inkscape:path-effect effect="spiro" id="path-effect5322" is_visible="true"/>
    <inkscape:path-effect is_visible="true" id="path-effect5318" effect="spiro"/>
    <inkscape:path-effect effect="spiro" id="path-effect5201" is_visible="true"/>
    <inkscape:path-effect is_visible="true" id="path-effect5195" effect="spiro"/>
    <inkscape:path-effect effect="spiro" id="path-effect5189" is_visible="true"/>
    <inkscape:path-effect effect="spiro" id="path-effect5185" is_visible="true"/>
    <inkscape:path-effect is_visible="true" id="path-effect5181" effect="spiro"/>
    <inkscape:path-effect effect="spiro" id="path-effect5173" is_visible="true"/>
    <inkscape:path-effect is_visible="true" id="path-effect5165" effect="spiro"/>
    <inkscape:path-effect is_visible="true" id="path-effect5105" effect="spiro"/>
    <inkscape:path-effect effect="spiro" id="path-effect5101" is_visible="true"/>
    <inkscape:path-effect is_visible="true" id="path-effect5097" effect="spiro"/>
    <inkscape:path-effect effect="spiro" id="path-effect5093" is_visible="true"/>
    <inkscape:path-effect is_visible="true" id="path-effect5089" effect="spiro"/>
    <inkscape:path-effect effect="spiro" id="path-effect5085" is_visible="true"/>
    <inkscape:path-effect is_visible="true" id="path-effect5081" effect="spiro"/>
    <inkscape:path-effect effect="spiro" id="path-effect5077" is_visible="true"/>
    <inkscape:path-effect effect="spiro" id="path-effect5073" is_visible="true"/>
    <inkscape:path-effect is_visible="true" id="path-effect5067" effect="spiro"/>
    <inkscape:path-effect effect="spiro" id="path-effect5061" is_visible="true"/>
    <inkscape:path-effect effect="spiro" id="path-effect5055" is_visible="true"/>
    <inkscape:path-effect is_visible="true" id="path-effect5047" effect="spiro"/>
    <inkscape:path-effect effect="spiro" id="path-effect5043" is_visible="true"/>
    <inkscape:path-effect effect="spiro" id="path-effect5036" is_visible="true"/>
    <inkscape:path-effect is_visible="true" id="path-effect5033" effect="spiro"/>
    <inkscape:path-effect effect="spiro" id="path-effect5030" is_visible="true"/>
    <inkscape:path-effect is_visible="true" id="path-effect5027" effect="spiro"/>
    <inkscape:path-effect effect="spiro" id="path-effect5024" is_visible="true"/>
    <inkscape:path-effect is_visible="true" id="path-effect5021" effect="spiro"/>
    <inkscape:path-effect effect="spiro" id="path-effect5018" is_visible="true"/>
    <inkscape:path-effect is_visible="true" id="path-effect5015" effect="spiro"/>
    <inkscape:path-effect effect="spiro" id="path-effect5012" is_visible="true"/>
    <inkscape:path-effect is_visible="true" id="path-effect5009" effect="spiro"/>
    <inkscape:path-effect effect="spiro" id="path-effect5006" is_visible="true"/>
    <inkscape:path-effect is_visible="true" id="path-effect5003" effect="spiro"/>
    <inkscape:path-effect effect="spiro" id="path-effect5000" is_visible="true"/>
    <inkscape:path-effect is_visible="true" id="path-effect4992" effect="spiro"/>
    <inkscape:path-effect effect="spiro" id="path-effect4989" is_visible="true"/>
    <inkscape:path-effect is_visible="true" id="path-effect4986" effect="spiro"/>
    <inkscape:path-effect effect="spiro" id="path-effect4983" is_visible="true"/>
    <inkscape:path-effect is_visible="true" id="path-effect4980" effect="spiro"/>
    <inkscape:path-effect effect="spiro" id="path-effect4977" is_visible="true"/>
    <inkscape:path-effect is_visible="true" id="path-effect4889" effect="spiro"/>
    <inkscape:path-effect effect="spiro" id="path-effect4885" is_visible="true"/>
    <inkscape:path-effect is_visible="true" id="path-effect4881" effect="spiro"/>
    <inkscape:path-effect effect="spiro" id="path-effect4877" is_visible="true"/>
    <inkscape:path-effect is_visible="true" id="path-effect4873" effect="spiro"/>
    <inkscape:path-effect effect="spiro" id="path-effect4869" is_visible="true"/>
    <inkscape:path-effect is_visible="true" id="path-effect4855" effect="spiro"/>
    <inkscape:path-effect effect="spiro" id="path-effect4851" is_visible="true"/>
    <inkscape:path-effect is_visible="true" id="path-effect4847" effect="spiro"/>
    <inkscape:path-effect effect="spiro" id="path-effect4843" is_visible="true"/>
    <inkscape:path-effect is_visible="true" id="path-effect4839" effect="spiro"/>
    <inkscape:path-effect effect="spiro" id="path-effect4835" is_visible="true"/>
    <inkscape:path-effect is_visible="true" id="path-effect4831" effect="spiro"/>
    <inkscape:path-effect effect="spiro" id="path-effect4827" is_visible="true"/>
    <inkscape:path-effect is_visible="true" id="path-effect4823" effect="spiro"/>
    <inkscape:path-effect effect="spiro" id="path-effect4819" is_visible="true"/>
    <inkscape:path-effect is_visible="true" id="path-effect4815" effect="spiro"/>
    <inkscape:path-effect effect="spiro" id="path-effect4811" is_visible="true"/>
    <inkscape:path-effect is_visible="true" id="path-effect4806" effect="spiro"/>
    <inkscape:path-effect is_visible="true" id="path-effect4751" effect="spiro"/>
    <inkscape:path-effect effect="spiro" id="path-effect4747" is_visible="true"/>
    <inkscape:path-effect is_visible="true" id="path-effect4743" effect="spiro"/>
    <inkscape:path-effect effect="spiro" id="path-effect4739" is_visible="true"/>
    <inkscape:path-effect is_visible="true" id="path-effect4735" effect="spiro"/>
    <inkscape:path-effect effect="spiro" id="path-effect4642" is_visible="true"/>
    <inkscape:path-effect is_visible="true" id="path-effect4638" effect="spiro"/>
    <inkscape:path-effect effect="spiro" id="path-effect4407" is_visible="true"/>
    <inkscape:path-effect is_visible="true" id="path-effect4403" effect="spiro"/>
    <inkscape:path-effect effect="spiro" id="path-effect4399" is_visible="true"/>
    <inkscape:path-effect is_visible="true" id="path-effect4395" effect="spiro"/>
    <inkscape:path-effect effect="spiro" id="path-effect4391" is_visible="true"/>
    <inkscape:path-effect is_visible="true" id="path-effect4387" effect="spiro"/>
    <inkscape:path-effect effect="spiro" id="path-effect4383" is_visible="true"/>
    <inkscape:path-effect is_visible="true" id="path-effect4379" effect="spiro"/>
    <inkscape:path-effect effect="spiro" id="path-effect4374" is_visible="true"/>
    <inkscape:path-effect is_visible="true" id="path-effect4370" effect="spiro"/>
    <inkscape:path-effect effect="spiro" id="path-effect4366" is_visible="true"/>
    <inkscape:path-effect is_visible="true" id="path-effect4362" effect="spiro"/>
    <inkscape:path-effect effect="spiro" id="path-effect4358" is_visible="true"/>
    <inkscape:path-effect is_visible="true" id="path-effect4354" effect="spiro"/>
    <inkscape:path-effect effect="spiro" id="path-effect4350" is_visible="true"/>
    <inkscape:path-effect is_visible="true" id="path-effect4346" effect="spiro"/>
    <inkscape:path-effect effect="spiro" id="path-effect4342" is_visible="true"/>
    <inkscape:path-effect is_visible="true" id="path-effect4338" effect="spiro"/>
    <inkscape:path-effect effect="spiro" id="path-effect4334" is_visible="true"/>
    <inkscape:path-effect is_visible="true" id="path-effect4330" effect="spiro"/>
    <inkscape:path-effect effect="spiro" id="path-effect4326" is_visible="true"/>
    <inkscape:path-effect is_visible="true" id="path-effect4322" effect="spiro"/>
    <inkscape:path-effect effect="spiro" id="path-effect4816" is_visible="true"/>
    <inkscape:path-effect is_visible="true" id="path-effect4813" effect="spiro"/>
    <inkscape:path-effect is_visible="true" id="path-effect4810" effect="spiro"/>
    <inkscape:path-effect effect="spiro" id="path-effect4807" is_visible="true"/>
    <inkscape:path-effect effect="spiro" id="path-effect4804" is_visible="true"/>
    <inkscape:path-effect is_visible="true" id="path-effect4801" effect="spiro"/>
    <inkscape:path-effect is_visible="true" id="path-effect4798" effect="spiro"/>
    <inkscape:path-effect effect="spiro" id="path-effect4795" is_visible="true"/>
    <inkscape:path-effect effect="spiro" id="path-effect4792" is_visible="true"/>
    <inkscape:path-effect is_visible="true" id="path-effect4789" effect="spiro"/>
    <inkscape:path-effect is_visible="true" id="path-effect4786" effect="spiro"/>
    <inkscape:path-effect effect="spiro" id="path-effect4783" is_visible="true"/>
    <inkscape:path-effect is_visible="true" id="path-effect4728" effect="spiro"/>
    <inkscape:path-effect effect="spiro" id="path-effect4724" is_visible="true"/>
    <inkscape:path-effect effect="spiro" id="path-effect4720" is_visible="true"/>
    <inkscape:path-effect is_visible="true" id="path-effect4716" effect="spiro"/>
    <inkscape:path-effect is_visible="true" id="path-effect4712" effect="spiro"/>
    <inkscape:path-effect effect="spiro" id="path-effect4708" is_visible="true"/>
    <inkscape:path-effect effect="spiro" id="path-effect4704" is_visible="true"/>
    <inkscape:path-effect is_visible="true" id="path-effect4700" effect="spiro"/>
    <inkscape:path-effect is_visible="true" id="path-effect4696" effect="spiro"/>
    <inkscape:path-effect effect="spiro" id="path-effect4692" is_visible="true"/>
    <inkscape:path-effect effect="spiro" id="path-effect4688" is_visible="true"/>
    <inkscape:path-effect is_visible="true" id="path-effect4684" effect="spiro"/>
    <inkscape:path-effect effect="spiro" id="path-effect4680" is_visible="true"/>
    <inkscape:path-effect effect="spiro" id="path-effect4676" is_visible="true"/>
    <inkscape:path-effect is_visible="true" id="path-effect4672" effect="spiro"/>
    <inkscape:path-effect is_visible="true" id="path-effect4668" effect="spiro"/>
    <inkscape:path-effect effect="spiro" id="path-effect4664" is_visible="true"/>
    <inkscape:path-effect effect="spiro" id="path-effect4660" is_visible="true"/>
    <inkscape:path-effect is_visible="true" id="path-effect4656" effect="spiro"/>
    <inkscape:path-effect is_visible="true" id="path-effect4652" effect="spiro"/>
    <inkscape:path-effect effect="spiro" id="path-effect4648" is_visible="true"/>
    <inkscape:path-effect effect="spiro" id="path-effect4644" is_visible="true"/>
    <inkscape:path-effect is_visible="true" id="path-effect4624" effect="spiro"/>
    <inkscape:path-effect effect="spiro" id="path-effect4620" is_visible="true"/>
    <inkscape:path-effect effect="spiro" id="path-effect4616" is_visible="true"/>
    <inkscape:path-effect is_visible="true" id="path-effect4612" effect="spiro"/>
    <inkscape:path-effect effect="spiro" id="path-effect4603" is_visible="true"/>
    <inkscape:path-effect is_visible="true" id="path-effect4600" effect="spiro"/>
    <inkscape:path-effect effect="spiro" id="path-effect4597" is_visible="true"/>
    <inkscape:path-effect is_visible="true" id="path-effect4594" effect="spiro"/>
    <inkscape:path-effect effect="spiro" id="path-effect4591" is_visible="true"/>
    <inkscape:path-effect is_visible="true" id="path-effect4588" effect="spiro"/>
    <inkscape:path-effect effect="spiro" id="path-effect4585" is_visible="true"/>
    <inkscape:path-effect is_visible="true" id="path-effect4542" effect="spiro"/>
    <inkscape:path-effect effect="spiro" id="path-effect4538" is_visible="true"/>
    <inkscape:path-effect is_visible="true" id="path-effect4534" effect="spiro"/>
    <inkscape:path-effect effect="spiro" id="path-effect4530" is_visible="true"/>
    <inkscape:path-effect is_visible="true" id="path-effect4526" effect="spiro"/>
    <inkscape:path-effect effect="spiro" id="path-effect4522" is_visible="true"/>
    <inkscape:path-effect is_visible="true" id="path-effect4518" effect="spiro"/>
    <inkscape:path-effect effect="spiro" id="path-effect4295" is_visible="true"/>
    <inkscape:path-effect is_visible="true" id="path-effect4291" effect="spiro"/>
    <inkscape:path-effect is_visible="true" id="path-effect4287" effect="spiro"/>
    <inkscape:path-effect effect="spiro" id="path-effect4283" is_visible="true"/>
    <inkscape:path-effect effect="spiro" id="path-effect4279" is_visible="true"/>
    <inkscape:path-effect is_visible="true" id="path-effect4275" effect="spiro"/>
    <inkscape:path-effect is_visible="true" id="path-effect4157" effect="spiro"/>
    <inkscape:path-effect is_visible="true" id="path-effect4153" effect="spiro"/>
    <inkscape:path-effect effect="spiro" id="path-effect4239" is_visible="true"/>
    <inkscape:path-effect is_visible="true" id="path-effect4223" effect="spiro"/>
    <inkscape:path-effect effect="spiro" id="path-effect4217" is_visible="true"/>
    <inkscape:path-effect is_visible="true" id="path-effect4213" effect="spiro"/>
    <inkscape:path-effect is_visible="true" id="path-effect5296" effect="spiro"/>
    <inkscape:path-effect is_visible="true" id="path-effect7060" effect="spiro"/>
    <inkscape:path-effect effect="spiro" id="path-effect6771" is_visible="true"/>
    <inkscape:path-effect is_visible="true" id="path-effect6833" effect="spiro"/>
    <inkscape:path-effect effect="spiro" id="path-effect6839" is_visible="true"/>
    <inkscape:path-effect is_visible="true" id="path-effect6848" effect="spiro"/>
    <inkscape:path-effect effect="spiro" id="path-effect6856" is_visible="true"/>
  </defs>
  
  <g transform="translate(0,-1020.3622)" id="layer1" inkscape:groupmode="layer" inkscape:label="Layer 1">
    <g aria-label="A" style="font-style:normal;font-weight:normal;font-size:1.33333337px;line-height:1.25;font-family:sans-serif;letter-spacing:0px;word-spacing:0px;fill:#000000;fill-opacity:1;stroke:none" id="text5755"/>
    <g aria-label="1" style="font-style:normal;font-weight:normal;font-size:1.33333337px;line-height:1.25;font-family:sans-serif;letter-spacing:0px;word-spacing:0px;fill:#000000;fill-opacity:1;stroke:none" id="text5759"/>
    <g id="g6647" transform="translate(14.554567,2.8613639)"/>
    <g transform="translate(-627.3655,-404.56725)" id="g10989">
      <path style="opacity:1;fill:#72caaf;fill-opacity:1;stroke:none;stroke-width:1;stroke-linecap:round;stroke-linejoin:round;stroke-miterlimit:4;stroke-dasharray:none;stroke-dashoffset:0;stroke-opacity:1;paint-order:fill markers stroke" d="m 645.60351,1430.5812 c -0.18065,0 -0.36067,0.022 -0.53515,0.068 l 0,0 c -1.06674,0.2859 -1.69979,1.3824 -1.41407,2.4492 0.005,0.021 0.0114,0.042 0.0176,0.062 -0.79412,0.4482 -1.18452,1.3768 -0.94921,2.2578 0.11741,0.4397 0.38129,0.8262 0.74804,1.0957 -0.18234,0.4152 -0.21816,0.8801 -0.10156,1.3184 0.11793,0.4399 0.38252,0.8265 0.75,1.0957 -0.1828,0.4158 -0.21862,0.8814 -0.10156,1.3203 0.23701,0.8813 1.04056,1.4904 1.95312,1.4804 0.004,0.02 0.007,0.041 0.0117,0.061 0.062,0.2277 0.16386,0.4426 0.30078,0.6348 l 3.26758,0 c 0.34178,-0.4851 0.45054,-1.0968 0.29688,-1.67 -0.006,-0.02 -0.0127,-0.04 -0.0195,-0.06 0.79497,-0.4484 1.18551,-1.3782 0.94922,-2.2598 -0.11742,-0.4397 -0.3813,-0.8262 -0.74805,-1.0957 0.18234,-0.4152 0.21816,-0.8801 0.10156,-1.3183 -0.11742,-0.4397 -0.3813,-0.8263 -0.74805,-1.0957 0.18234,-0.4153 0.21816,-0.8801 0.10156,-1.3184 -0.23701,-0.8813 -1.04056,-1.4904 -1.95312,-1.4805 -0.004,-0.022 -0.009,-0.043 -0.0137,-0.064 -0.23253,-0.8681 -1.01546,-1.4744 -1.91407,-1.4824 z" id="path10051" inkscape:connector-curvature="0" sodipodi:nodetypes="cccccccccccccccccccccccc"/>
      <path style="opacity:1;fill:#72caaf;fill-opacity:1;stroke:none;stroke-width:1;stroke-linecap:round;stroke-linejoin:round;stroke-miterlimit:4;stroke-dasharray:none;stroke-dashoffset:0;stroke-opacity:1;paint-order:fill markers stroke" d="m 655.16601,1433.1905 c -0.73135,-0.017 -1.41372,0.3664 -1.77929,1 -0.0101,0.019 -0.0198,0.038 -0.0293,0.057 -0.87913,-0.2455 -1.8129,0.1354 -2.26953,0.9258 -0.22776,0.3936 -0.31456,0.8531 -0.2461,1.3027 -0.42264,0.1649 -0.77664,0.4687 -1.0039,0.8613 -0.2282,0.3942 -0.31502,0.8545 -0.2461,1.3047 -0.42264,0.1649 -0.77664,0.4687 -1.0039,0.8613 -0.45555,0.7907 -0.31815,1.7895 0.33398,2.4278 -0.0113,0.017 -0.0224,0.035 -0.0332,0.053 -0.0794,0.1398 -0.14174,0.2886 -0.18554,0.4434 l 6.16991,0 c 0.0524,-0.2394 0.0603,-0.4863 0.0234,-0.7286 0.42265,-0.1649 0.77665,-0.4686 1.00391,-0.8613 0.2282,-0.3942 0.31502,-0.8544 0.24609,-1.3047 0.42337,-0.1645 0.77811,-0.4683 1.00586,-0.8613 0.45505,-0.7911 0.31684,-1.7899 -0.33593,-2.4277 0.0127,-0.018 0.025,-0.036 0.0371,-0.055 0.55114,-0.9564 0.22334,-2.1784 -0.73243,-2.7305 l -0.002,0 c -0.29022,-0.1676 -0.61797,-0.2597 -0.95308,-0.2676 z" id="path10053" inkscape:connector-curvature="0" sodipodi:nodetypes="ccccccccccccccccccccc"/>
      <circle style="opacity:1;fill:#ed7899;fill-opacity:1;stroke:none;stroke-width:1;stroke-linecap:round;stroke-linejoin:round;stroke-miterlimit:4;stroke-dasharray:none;stroke-dashoffset:0;stroke-opacity:1;paint-order:fill markers stroke" id="circle10055" cx="642.88788" cy="1438.2168" r="3"/>
      <path style="opacity:1;fill:#ed7899;fill-opacity:1;stroke:none;stroke-width:1;stroke-linecap:round;stroke-linejoin:round;stroke-miterlimit:4;stroke-dasharray:none;stroke-dashoffset:0;stroke-opacity:1;paint-order:fill markers stroke" d="m 633.88281,1438.4269 c -1.65685,0 -3,1.3431 -3,3 7.2e-4,0.3407 0.0595,0.6789 0.17383,1 l 5.65039,0 c 0.11498,-0.321 0.17443,-0.6591 0.17578,-1 0,-1.6569 -1.34315,-3 -3,-3 z" id="path10057" inkscape:connector-curvature="0" sodipodi:nodetypes="sccccs"/>
      <path style="opacity:1;fill:#72caaf;fill-opacity:1;stroke:none;stroke-width:1;stroke-linecap:round;stroke-linejoin:round;stroke-miterlimit:4;stroke-dasharray:none;stroke-dashoffset:0;stroke-opacity:1;paint-order:fill markers stroke" d="m 635.96094,1436.5343 c -0.52024,0.01 -1.01697,0.2179 -1.38477,0.5859 -0.78085,0.781 -0.78085,2.0471 0,2.8281 0.0154,0.015 0.031,0.03 0.0469,0.045 -0.46457,0.7855 -0.33842,1.786 0.30664,2.4316 l 0.002,0 9.06641,0 c 0.002,-0.5312 -0.20742,-1.0414 -0.58204,-1.418 -0.32204,-0.3221 -0.74442,-0.5247 -1.19726,-0.5742 -0.0493,-0.4509 -0.25037,-0.8717 -0.57031,-1.1933 -0.32205,-0.3222 -0.74443,-0.5248 -1.19727,-0.5743 -0.0498,-0.4512 -0.25161,-0.872 -0.57226,-1.1933 -0.64612,-0.6444 -1.64651,-0.7698 -2.43165,-0.3047 -0.0141,-0.016 -0.0284,-0.033 -0.043,-0.049 -0.38215,-0.3824 -0.90281,-0.5938 -1.44335,-0.586 z" id="path10059" inkscape:connector-curvature="0" sodipodi:nodetypes="ccccccccccccccc"/>
      <path style="opacity:1;fill:#cda1a7;fill-opacity:1;stroke:none;stroke-width:1;stroke-linecap:round;stroke-linejoin:round;stroke-miterlimit:4;stroke-dasharray:none;stroke-dashoffset:0;stroke-opacity:1;paint-order:fill markers stroke" d="m 644.54883,1437.4269 0,5 3.30078,0 c 0.22794,-0.4561 0.36719,-0.9611 0.36718,-1.5 0,-1.933 -1.64289,-3.5 -3.66796,-3.5 z" id="path10063" inkscape:connector-curvature="0" sodipodi:nodetypes="cccsc"/>
      <path style="opacity:1;fill:#f9dd8f;fill-opacity:1;stroke:none;stroke-width:0.99999994;stroke-linecap:round;stroke-linejoin:round;stroke-miterlimit:4;stroke-dasharray:none;stroke-dashoffset:0;stroke-opacity:1;paint-order:fill markers stroke" d="m 655.46441,1444.9908 c 0.2745,-0.8266 0.41823,-1.6875 0.4184,-2.5639 l -25,0 c 0.005,3.1638 1.88143,6.1235 5.02344,8 l 14.9707,0 c 0.56384,-0.3378 1.08671,-0.7106 1.56513,-1.1131 1.28239,-1.2394 2.42509,-2.5812 3.02233,-4.323 z" id="path10065" inkscape:connector-curvature="0" sodipodi:nodetypes="ccccccc"/>
      <rect style="opacity:1;fill:#f5c872;fill-opacity:1;stroke:none;stroke-width:0.99999994;stroke-linecap:round;stroke-linejoin:round;stroke-miterlimit:4;stroke-dasharray:none;stroke-dashoffset:0;stroke-opacity:1;paint-order:fill markers stroke" id="rect10069" width="14.999999" height="1.9999601" x="635.88281" y="1450.4268" rx="0.99998003" ry="0.99998003"/>
      <path style="fill:none;stroke:none;stroke-width:1px;stroke-linecap:round;stroke-linejoin:miter;stroke-opacity:1" d="m 628.87569,1452.427 29,0" id="path10095" inkscape:connector-curvature="0"/>
      <path transform="translate(0,1020.3622)" id="path10061" d="m 644.93945,409.80078 c -1.23341,0.3306 -1.91375,1.55787 -1.73242,2.79297 -0.5989,0.45355 -0.98806,1.11746 -1.0332,1.8418 -1.07791,0.22638 -1.98512,0.95022 -2.44922,1.94726 -0.66683,-0.36706 -1.4795,-0.37708 -2.20508,-0.0742 -0.45199,-0.3648 -0.98018,-0.64511 -1.56641,-0.63671 -0.60968,0.036 -1.24574,0.28892 -1.73046,0.73632 -0.34109,0.34113 -0.54992,0.75328 -0.63672,1.1875 -1.78675,0.15403 -3.20313,1.6453 -3.20313,3.47071 5.2e-4,0.24317 0.0353,0.48183 0.0859,0.71875 -0.0562,0.083 -0.0861,0.18101 -0.0859,0.28125 0.005,3.32015 1.95907,6.39709 5.1543,8.35156 -0.0957,0.19657 -0.1543,0.4148 -0.1543,0.64648 0,0.17692 0.0363,0.34373 0.0937,0.50196 l -2.93945,0 c -0.67616,-0.01 -0.67616,1.00956 0,1 l 25.33794,0 c 0.67616,0.01 0.67616,-1.00956 0,-1 l -6.58594,0 c 0.0574,-0.15823 0.0937,-0.32504 0.0937,-0.50196 0,-0.22703 -0.0563,-0.44122 -0.14843,-0.63476 0.54704,-0.33449 1.05917,-0.69825 1.52929,-1.09375 0.54235,-0.42533 -0.12964,-1.226 -0.64258,-0.76563 -0.42719,0.3594 -0.90159,0.6891 -1.40234,0.9961 l -0.83594,0 -13,0 -0.81445,0 c -1.34748,-0.82299 -2.41901,-1.85088 -3.19531,-3 l 3.79883,0 c 0.67615,0.01 0.67615,-1.0096 0,-1 l -4.38868,0 c -0.16206,-0.32636 -0.30179,-0.66025 -0.41797,-1 l 7.01172,0 c 0.67616,0.01 0.67616,-1.00956 0,-1 l -7.2832,0 c -0.0665,-0.33003 -0.11332,-0.66322 -0.13672,-1 l 23.84375,0 c -0.044,0.6457 -0.10598,1.29025 -0.31055,1.90625 -0.22451,0.64021 0.74711,0.96208 0.94922,0.31445 0.29078,-0.8756 0.44318,-1.7897 0.44336,-2.7207 -3e-5,-0.27613 -0.22387,-0.49997 -0.5,-0.5 l -0.50195,0 c -4.4e-4,-0.01 4e-4,-0.0196 0,-0.0293 0.36628,-0.2172 0.7376,-0.44401 0.95312,-0.81641 0.22818,-0.3942 0.25331,-0.85338 0.2461,-1.30468 0.39347,-0.2182 0.77625,-0.46853 1.0039,-0.86133 l 0.002,0 c 0.50768,-0.8826 0.34069,-1.93987 -0.26563,-2.73047 0.50809,-1.1499 0.16255,-2.52382 -0.94922,-3.16602 l -0.002,0 c -0.31961,-0.216 -0.8079,-0.32348 -1.19141,-0.33398 -0.83739,-0.019 -1.59132,0.4187 -2.06835,1.0957 -0.97393,-0.1098 -1.95296,0.26762 -2.45508,1.13672 -0.10796,0.18657 -0.16804,0.388 -0.20313,0.5957 -0.15042,-0.26752 -0.3613,-0.49967 -0.58594,-0.71679 0.12284,-0.4314 0.21794,-0.87901 0.10157,-1.31641 -0.26234,-0.9755 -1.11825,-1.59517 -2.09571,-1.73437 -0.35917,-0.9592 -1.22381,-1.65281 -2.26367,-1.66211 -0.17151,0.002 -0.36652,-0.0196 -0.66797,0.0781 z m 0.66407,0.91797 0,0.002 0.006,0 c 0.67006,0.011 1.24834,0.45622 1.42382,1.10352 0.003,0.011 0.005,0.0243 0.006,0.0273 0.0438,0.2399 0.25422,0.41316 0.49805,0.41016 0.68693,-0.01 1.28644,0.44597 1.46484,1.10937 0.0875,0.3288 0.0607,0.67659 -0.0762,0.98829 -0.0942,0.21389 -0.0277,0.46451 0.16016,0.60351 0.27503,0.202 0.4744,0.49257 0.5625,0.82227 0.0521,0.1958 0.0434,0.40222 0.0117,0.60742 -0.0967,0.098 -0.18512,0.20397 -0.25586,0.32617 -0.22819,0.3942 -0.25331,0.85349 -0.2461,1.30469 -0.34715,0.19313 -0.6809,0.41723 -0.91211,0.73633 -0.16914,-0.31693 -0.37595,-0.61023 -0.62304,-0.8711 l -1.56446,-5.83398 c -0.0544,-0.2182 -0.24782,-0.37331 -0.47265,-0.37891 -0.33737,-0.01 -0.58648,0.31212 -0.49414,0.63672 l 1.24804,4.6582 c -0.0322,-0.0149 -0.0611,-0.0347 -0.0937,-0.0488 -0.38571,-1.3861 -1.58157,-2.39033 -3.00976,-2.53516 0.0433,-0.47088 0.25085,-0.91114 0.68164,-1.1543 0.20543,-0.1156 0.30226,-0.35888 0.23242,-0.58398 -0.006,-0.018 -0.01,-0.0274 -0.01,-0.0274 -9.9e-4,0 -0.003,-0.0116 -0.004,-0.0156 -0.21568,-0.8053 0.25385,-1.61934 1.05859,-1.83594 0.13051,-0.034 0.26815,-0.0508 0.40821,-0.0508 z m 9.54492,2.60742 0.002,0 0.004,0 c 0.25125,0.01 0.4971,0.073 0.71484,0.19922 l 0.002,0 0.002,0 c 0.71933,0.4173 0.96124,1.32362 0.54687,2.04492 -0.004,0.01 -0.007,0.01 -0.0117,0.0156 -0.14201,0.2006 -0.11717,0.47468 0.0586,0.64648 0.49088,0.4796 0.59327,1.22316 0.25195,1.81836 -0.17086,0.2949 -0.43636,0.52309 -0.75391,0.64649 -0.21869,0.085 -0.34868,0.31106 -0.3125,0.54296 0.0517,0.3378 -0.0143,0.68272 -0.18554,0.97852 -0.17049,0.2946 -0.43489,0.52083 -0.75196,0.64453 -0.21787,0.085 -0.34767,0.30982 -0.3125,0.54102 0.008,0.051 -0.008,0.10269 -0.006,0.15429 l 0.0234,0.008 -2.61523,0 3.76758,-6.52149 c 0.19758,-0.33184 -0.0396,-0.75287 -0.42579,-0.75586 -0.18285,-0.002 -0.35211,0.0963 -0.4414,0.25586 l -4.05274,7.02149 -1.24414,0 0.0137,-0.004 c -10e-4,-0.1332 -0.0552,-0.26042 -0.1504,-0.35352 -0.4904,-0.48 -0.5917,-1.22541 -0.25,-1.82031 0.17051,-0.2945 0.43497,-0.52278 0.75196,-0.64648 0.21787,-0.085 0.34767,-0.30982 0.3125,-0.54102 -0.0517,-0.3377 0.0143,-0.68281 0.18554,-0.97851 0.17051,-0.2946 0.43497,-0.52279 0.75196,-0.64649 0.21787,-0.085 0.34767,-0.30981 0.3125,-0.54101 -0.0514,-0.3373 0.0147,-0.68127 0.18554,-0.97657 0.34374,-0.595 1.03942,-0.88011 1.70118,-0.69531 0.23072,0.065 0.47483,-0.043 0.58203,-0.25781 0.006,-0.011 0.0103,-0.0213 0.0156,-0.0312 0.27352,-0.4741 0.78109,-0.75845 1.32813,-0.74805 z m -12.25977,2.0293 c 0.87622,7.9e-4 1.53696,0.53804 1.98047,1.24219 -0.10762,-0.008 -0.21069,-0.0312 -0.32031,-0.0312 -0.27613,0 -0.49997,0.2239 -0.5,0.5 l 0,3.5664 c -0.0832,-0.12019 -0.17288,-0.23482 -0.27735,-0.33984 l -0.002,0 c -0.32156,-0.3216 -0.75814,-0.46472 -1.19531,-0.57422 -0.10873,-0.436 -0.2505,-0.87186 -0.57031,-1.19336 l -0.002,0 c -0.3222,-0.3223 -0.75908,-0.46677 -1.19726,-0.57617 -0.0679,-0.27078 -0.15505,-0.5385 -0.28321,-0.78125 0.30918,-1.05973 1.2495,-1.81182 2.36719,-1.8125 z m -6.91797,1.32031 0.006,0 c 0.40082,0 0.78599,0.15079 1.07032,0.4336 0.007,0.01 0.0122,0.0123 0.0254,0.0273 0.15883,0.1808 0.4239,0.22436 0.63085,0.10156 0.59101,-0.3501 1.3359,-0.25658 1.82227,0.22852 0.23982,0.2409 0.39239,0.55663 0.42969,0.89453 0.026,0.2322 0.20922,0.4154 0.4414,0.4414 0.33973,0.037 0.65683,0.18984 0.89844,0.43165 0.23927,0.24099 0.39081,0.55487 0.42774,0.89257 0.0251,0.233 0.20856,0.41726 0.4414,0.44336 0.33973,0.037 0.65684,0.19004 0.89844,0.43164 0.14898,0.1502 0.15854,0.37066 0.23242,0.56446 l -3.20312,0 -3.77539,-3.77344 c -0.0942,-0.0974 -0.22389,-0.15235 -0.35938,-0.15235 -0.44941,9e-5 -0.67059,0.54685 -0.34765,0.85938 l 3.06835,3.06641 -3.46679,0 c -0.38418,-0.4825 -0.47851,-1.13614 -0.15821,-1.67774 0.11975,-0.201 0.0841,-0.45834 -0.0859,-0.61914 -0.013,-0.012 -0.0259,-0.0241 -0.0391,-0.0371 -0.58646,-0.5901 -0.58678,-1.52839 0.002,-2.11719 0.27524,-0.2754 0.64779,-0.43195 1.04101,-0.43945 z m 9.07813,1.08594 c 1.48673,0.2555 2.66797,1.33859 2.66797,2.80469 0,0.355 -0.11969,0.6789 -0.2461,1 l -2.42187,0 z m -11.43164,0.88867 c 0.089,0.37535 0.2539,0.74017 0.50781,1.05664 -0.25142,0.60472 -0.28511,1.26847 -0.0781,1.85938 l -2.57618,0 c -0.035,-0.1667 -0.0875,-0.33106 -0.0879,-0.50196 9.8e-4,-1.28605 0.98724,-2.27256 2.23438,-2.41406 z m 20.96484,7.29688 c -0.16397,0.0122 -0.31148,0.10419 -0.39453,0.24609 -0.22319,0.3652 -0.47638,0.71955 -0.75781,1.06055 -0.4346,0.51526 0.348,1.16116 0.77148,0.63671 0.31057,-0.3764 0.58942,-0.76918 0.83789,-1.17578 0.20725,-0.32686 -0.0194,-0.75514 -0.40625,-0.76757 -0.0169,-8.6e-4 -0.0339,-8.6e-4 -0.0508,0 z m -17.69922,4.61914 13,0 c 0.2857,0 0.5,0.21234 0.5,0.49804 0,0.2856 -0.21436,0.5 -0.5,0.5 l -13,0 c -0.28563,0 -0.5,-0.2144 -0.5,-0.5 0,-0.2857 0.21431,-0.49804 0.5,-0.49804 z m -8.05859,1 c -0.66667,0.0338 -0.61589,1.03385 0.0508,1 l 0.92578,0 c 0.67616,0.01 0.67616,-1.00956 0,-1 l -0.9258,0 c -0.0169,-8.6e-4 -0.0339,-8.6e-4 -0.0508,0 z" style="color:#000000;font-style:normal;font-variant:normal;font-weight:normal;font-stretch:normal;font-size:medium;line-height:normal;font-family:sans-serif;text-indent:0;text-align:start;text-decoration:none;text-decoration-line:none;text-decoration-style:solid;text-decoration-color:#000000;letter-spacing:normal;word-spacing:normal;text-transform:none;direction:ltr;writing-mode:lr-tb;baseline-shift:baseline;text-anchor:start;white-space:normal;clip-rule:nonzero;display:inline;overflow:visible;visibility:visible;opacity:1;isolation:auto;mix-blend-mode:normal;color-interpolation:sRGB;color-interpolation-filters:linearRGB;solid-color:#000000;solid-opacity:1;fill:#454a54;fill-opacity:1;fill-rule:nonzero;stroke:none;stroke-width:1px;stroke-linecap:round;stroke-linejoin:miter;stroke-miterlimit:4;stroke-dasharray:none;stroke-dashoffset:0;stroke-opacity:1;color-rendering:auto;image-rendering:auto;shape-rendering:auto;text-rendering:auto;enable-background:accumulate" inkscape:connector-curvature="0" sodipodi:nodetypes="ccccccccccccsccccccsccccccccccccccccccccccccccccccccccccccccccccccccccccccccccccccccccccccccccccccccccccccccccccccccccccccccscccccccccccscccccccccccccccccccccccsccccccccccccccccsssszsscccccc"/>
    </g>
  </g>
  <style type="text/css" id="style5178">
	.st0{fill:#030102;}
</style>

	<metadata>
		<rdf:RDF xmlns:rdf="http://www.w3.org/1999/02/22-rdf-syntax-ns#" xmlns:rdfs="http://www.w3.org/2000/01/rdf-schema#" xmlns:dc="http://purl.org/dc/elements/1.1/">
			<rdf:Description about="https://iconscout.com/legal#licenses" dc:title="food-vegetables-vegetarian-healthy food-salad" dc:description="food-vegetables-vegetarian-healthy food-salad" dc:publisher="Iconscout" dc:date="2017-06-13" dc:format="image/svg+xml" dc:language="en">
				<dc:creator>
					<rdf:Bag>
						<rdf:li>Devendra Karkar</rdf:li>
					</rdf:Bag>
				</dc:creator>
			</rdf:Description>
		</rdf:RDF>
    </metadata></svg>
