<svg xmlns="http://www.w3.org/2000/svg" data-name="Layer 1" viewBox="0 0 512 512"><path fill="#ec6a46" d="M450.3,293.62a38.86,38.86,0,1,1,0,77.72H61.7a38.86,38.86,0,1,1,0-77.72Z"/><path fill="#f5b955" d="M450.3 293.62H61.7a55.515 55.515 0 0 1 55.51-55.51H394.79A55.507 55.507 0 0 1 450.3 293.62zM61.7 371.34H450.3a55.515 55.515 0 0 1-55.51 55.52H117.21A55.515 55.515 0 0 1 61.7 371.34z"/><path fill="#083863" d="M457.857,286.183A63.64,63.64,0,0,0,394.79,230H117.21a63.594,63.594,0,0,0-63.07,56.208,46.911,46.911,0,0,0,0,92.58A63.659,63.659,0,0,0,117.21,435H394.79a63.615,63.615,0,0,0,63.07-56.24,46.91,46.91,0,0,0,0-92.577ZM83.62,260.159A47.4,47.4,0,0,1,117.21,246H394.79a47.455,47.455,0,0,1,46.822,40H70.38A46.631,46.631,0,0,1,83.62,260.159ZM428.383,404.844A47.429,47.429,0,0,1,394.79,419H117.21a47.455,47.455,0,0,1-46.823-40H441.62A46.677,46.677,0,0,1,428.383,404.844Zm43.744-50.715A30.533,30.533,0,0,1,450.3,363H61.7a30.75,30.75,0,0,1-30.86-30.69,30.063,30.063,0,0,1,9.032-21.544A30.44,30.44,0,0,1,61.7,302H450.3a30.661,30.661,0,0,1,30.86,30.585A30.06,30.06,0,0,1,472.127,354.129Z"/><path fill="#083863" d="M450.3 313.38c-15.254 0-23.262 7.315-29.7 13.194-5.723 5.228-9.858 9.006-18.9 9.006s-13.18-3.777-18.9-9c-6.436-5.879-14.445-13.195-29.706-13.195-15.244 0-23.247 7.315-29.678 13.194-5.72 5.228-9.851 9.006-18.892 9.006s-13.172-3.777-18.892-9C279.2 320.7 271.19 313.38 255.94 313.38s-23.256 7.317-29.688 13.2c-5.718 5.227-9.849 9-18.882 9s-13.165-3.777-18.882-9c-6.429-5.879-14.432-13.2-29.678-13.2s-23.248 7.317-29.678 13.2c-5.717 5.227-9.848 9-18.882 9s-13.155-3.776-18.87-9c-6.43-5.88-14.432-13.2-29.68-13.2a8 8 0 1 0 0 16c9.035 0 13.165 3.777 18.882 9 6.428 5.879 14.428 13.195 29.668 13.195s23.249-7.317 29.679-13.2c5.717-5.227 9.847-9 18.881-9s13.165 3.777 18.881 9c6.431 5.879 14.433 13.2 29.679 13.2s23.247-7.315 29.678-13.194c5.72-5.228 9.851-9.006 18.892-9.006s13.173 3.777 18.893 9c6.433 5.879 14.437 13.195 29.687 13.195s23.256-7.317 29.688-13.2c5.718-5.227 9.849-9 18.882-9 9.053 0 13.19 3.779 18.916 9.009 6.434 5.877 14.442 13.191 29.694 13.191s23.262-7.315 29.7-13.194c5.723-5.228 9.858-9.006 18.9-9.006a8 8 0 1 0 0-16zM251.384 149.236C246.055 153 238 158.692 238 169.9s8.054 16.891 13.383 20.654c5.127 3.621 6.617 5.057 6.617 7.6a8 8 0 0 0 16 0c0-11.21-8.057-16.9-13.388-20.665-5.123-3.618-6.612-5.053-6.612-7.585s1.49-3.975 6.616-7.6C265.945 158.539 274 152.848 274 141.64s-8.054-16.89-13.383-20.654c-5.127-3.621-6.617-5.057-6.617-7.6s1.489-3.967 6.612-7.585C265.943 102.04 274 96.35 274 85.14a8 8 0 1 0-16 0c0 2.539-1.49 3.975-6.617 7.6C246.054 96.5 238 102.188 238 113.39s8.057 16.9 13.388 20.665c5.123 3.618 6.612 5.053 6.612 7.585S256.51 145.615 251.384 149.236zM201.384 149.236C196.055 153 188 158.692 188 169.9s8.054 16.891 13.383 20.654c5.127 3.621 6.617 5.057 6.617 7.6a8 8 0 0 0 16 0c0-11.21-8.057-16.9-13.388-20.665-5.123-3.618-6.612-5.053-6.612-7.585s1.49-3.975 6.616-7.6C215.945 158.539 224 152.848 224 141.64s-8.054-16.89-13.383-20.654c-5.127-3.621-6.617-5.057-6.617-7.6s1.489-3.967 6.612-7.585C215.943 102.04 224 96.35 224 85.14a8 8 0 1 0-16 0c0 2.539-1.49 3.975-6.617 7.6C196.054 96.5 188 102.188 188 113.39s8.057 16.9 13.388 20.665c5.123 3.618 6.612 5.053 6.612 7.585S206.51 145.615 201.384 149.236zM301.384 149.236C296.055 153 288 158.692 288 169.9s8.054 16.891 13.383 20.654c5.127 3.621 6.617 5.057 6.617 7.6a8 8 0 0 0 16 0c0-11.21-8.057-16.9-13.388-20.665-5.123-3.618-6.612-5.053-6.612-7.585s1.49-3.975 6.616-7.6C315.945 158.539 324 152.848 324 141.64s-8.054-16.89-13.383-20.654c-5.127-3.621-6.617-5.057-6.617-7.6s1.489-3.967 6.612-7.585C315.943 102.04 324 96.35 324 85.14a8 8 0 1 0-16 0c0 2.539-1.49 3.975-6.617 7.6C296.054 96.5 288 102.188 288 113.39s8.057 16.9 13.388 20.665c5.123 3.618 6.612 5.053 6.612 7.585S306.51 145.615 301.384 149.236z"/></svg>