<svg xmlns="http://www.w3.org/2000/svg" data-name="Layer 1" viewBox="0 0 64 64"><path fill="#f9c290" stroke="#5f363a" stroke-linecap="round" stroke-linejoin="round" stroke-width="3" d="M7.16,15.35a4,4,0,0,0,5,2,58.86,58.86,0,0,1,39.6,0,4,4,0,0,0,5-2l.28-.6a4.33,4.33,0,0,0-2.21-5.81h0a57.74,57.74,0,0,0-45.82,0h0a4.34,4.34,0,0,0-2.21,5.81Z"/><path fill="#ffdd7d" stroke="#5f363a" stroke-linecap="round" stroke-linejoin="round" stroke-width="3" d="M10.5,17.64a4.05,4.05,0,0,0,1.68-.23,58.82,58.82,0,0,1,39.64,0,4,4,0,0,0,1.67.23h0L34.2,58.41a2.44,2.44,0,0,1-4.4,0L10.5,17.62Z"/><circle cx="37.54" cy="25.53" r="5.69" fill="#ec6d5e" stroke="#5f363a" stroke-linecap="round" stroke-linejoin="round" stroke-width="3"/><path fill="#ec6d5e" stroke="#5f363a" stroke-linecap="round" stroke-linejoin="round" stroke-width="3" d="M15.61 28.41a5.69 5.69 0 1 1 4.62 9.77zM37.64 51.15a5.7 5.7 0 1 1 4.67-9.89z"/></svg>